<svg width="73" height="73" viewBox="0 0 73 73" fill="none" xmlns="http://www.w3.org/2000/svg">
<path d="M71.1999 33.1707C72.3231 35.2481 72.3231 37.7519 71.1999 39.8293L64.3167 52.56L56.7332 64.8864C55.4957 66.8978 53.3274 68.1497 50.9667 68.2157L36.5 68.62L22.0333 68.2157C19.6726 68.1497 17.5043 66.8978 16.2668 64.8864L8.68326 52.56L1.80005 39.8293C0.676848 37.7519 0.676848 35.2481 1.80006 33.1707L8.68326 20.44L16.2668 8.1136C17.5043 6.10217 19.6726 4.85031 22.0333 4.78433L36.5 4.38L50.9667 4.78433C53.3274 4.85031 55.4957 6.10217 56.7332 8.1136L64.3167 20.44L71.1999 33.1707Z" fill="white"/>
<g clip-path="url(#clip0_365_63)">
<path d="M49.0667 25.5H40.3167H37.05L22.5833 39.85C22.1167 40.3167 22.2333 40.9 22.7 41.3667L30.9833 49.65C31.45 50.1167 32.15 50.1167 32.6167 49.65L33.3167 48.8333L34.1333 49.65C34.6 50.1167 35.1833 50.1167 35.65 49.65L50 35.1833V26.4333C50 25.85 49.7667 25.5 49.0667 25.5ZM31.6833 48.8333L23.4 40.55L37.4 26.6667H39.0333L25.9667 39.7333C25.5 40.2 25.5 40.9 25.9667 41.3667L32.5 48.0167L31.6833 48.8333ZM47.6667 34.25L34.8333 47.2L28.3 40.6667L41.3667 27.8333H47.6667V34.25Z" fill="black"/>
<path d="M43 34.8333C44.2833 34.8333 45.3333 33.7833 45.3333 32.5C45.3333 31.2166 44.2833 30.1666 43 30.1666C41.7166 30.1666 40.6666 31.2166 40.6666 32.5C40.6666 33.7833 41.7166 34.8333 43 34.8333ZM43 31.3333C43.7 31.3333 44.1666 31.8 44.1666 32.5C44.1666 33.2 43.7 33.6666 43 33.6666C42.3 33.6666 41.8333 33.2 41.8333 32.5C41.8333 31.8 42.3 31.3333 43 31.3333Z" fill="black"/>
<path d="M30.9386 40.4252L35.0634 44.5499L35.8883 43.725L31.7636 39.6002L30.9386 40.4252Z" fill="black"/>
<path d="M32.6116 38.7754L36.7363 42.9001L37.5613 42.0752L33.4365 37.9504L32.6116 38.7754Z" fill="black"/>
</g>
<defs>
<clipPath id="clip0_365_63">
<rect width="28" height="28" fill="white" transform="translate(22 22)"/>
</clipPath>
</defs>
</svg>
