<svg width="50" height="55" viewBox="0 0 50 55" fill="none" xmlns="http://www.w3.org/2000/svg">
<path d="M23.1084 0.47237C24.2887 -0.157457 25.7113 -0.157457 26.8916 0.47237L37.5 6.13294L47.7714 12.3694C48.9143 13.0633 49.6256 14.2792 49.6631 15.6029L50 27.5L49.6631 39.3971C49.6256 40.7208 48.9143 41.9366 47.7714 42.6306L37.5 48.8671L26.8916 54.5276C25.7113 55.1575 24.2887 55.1575 23.1084 54.5276L12.5 48.8671L2.22856 42.6306C1.0857 41.9366 0.374415 40.7208 0.336927 39.3971L0 27.5L0.336927 15.6029C0.374415 14.2792 1.0857 13.0633 2.22856 12.3694L12.5 6.13294L23.1084 0.47237Z" fill="#1E1E1E"/>
<path fill-rule="evenodd" clip-rule="evenodd" d="M14.9038 27.3627L24.7157 17.6657L34.5277 27.3627L32.5174 29.3438L26.1362 23.0373L26.1362 37.5933L23.2953 37.5933L23.2953 23.0373L16.914 29.3438L14.9038 27.3627Z" fill="#DBFF00"/>
</svg>
