<svg width="50" height="55" viewBox="0 0 50 55" fill="none" xmlns="http://www.w3.org/2000/svg">
<path d="M23.1084 0.47237C24.2887 -0.157457 25.7113 -0.157457 26.8916 0.47237L37.5 6.13294L47.7714 12.3694C48.9143 13.0633 49.6256 14.2792 49.6631 15.6029L50 27.5L49.6631 39.3971C49.6256 40.7208 48.9143 41.9366 47.7714 42.6306L37.5 48.8671L26.8916 54.5276C25.7113 55.1575 24.2887 55.1575 23.1084 54.5276L12.5 48.8671L2.22856 42.6306C1.0857 41.9366 0.374415 40.7208 0.336927 39.3971L0 27.5L0.336927 15.6029C0.374415 14.2792 1.0857 13.0633 2.22856 12.3694L12.5 6.13294L23.1084 0.47237Z" fill="#1E1E1E"/>
<path d="M33.533 33.926C33.533 33.926 32.3743 35.0051 32.0904 35.3215C31.6278 35.7895 31.0828 36.0106 30.3684 36.0106C30.2997 36.0106 30.2264 36.0106 30.1577 36.0062C28.7975 35.9239 27.5336 35.4212 26.5856 34.9921C23.9934 33.8046 21.7173 32.1187 19.8259 29.9821C18.2642 28.2009 17.2201 26.554 16.5285 24.7858C16.1026 23.7066 15.9469 22.8658 16.0156 22.0727C16.0614 21.5657 16.2675 21.1453 16.6476 20.7856L18.2093 19.3077C18.4337 19.1083 18.6718 19 18.9054 19C19.1939 19 19.4275 19.1647 19.574 19.3034C19.5786 19.3077 19.5832 19.312 19.5878 19.3164C19.8671 19.5634 20.1328 19.8191 20.4121 20.0921C20.5541 20.2308 20.7006 20.3695 20.8472 20.5125L22.0975 21.6957C22.5829 22.1551 22.5829 22.5798 22.0975 23.0392C21.9646 23.1649 21.8364 23.2906 21.7036 23.4119C21.3189 23.7846 21.6211 23.4986 21.2227 23.8367C21.2135 23.8454 21.2043 23.8497 21.1998 23.8584C20.8059 24.2311 20.8792 24.5951 20.9616 24.8422C20.9662 24.8552 20.9708 24.8682 20.9754 24.8812C21.3005 25.6266 21.7585 26.3287 22.4546 27.1651L22.4592 27.1695C23.7232 28.643 25.0559 29.7915 26.526 30.6713C26.7137 30.7839 26.9061 30.875 27.0893 30.9616C27.2541 31.0396 27.4098 31.1133 27.5426 31.1913C27.561 31.2 27.5793 31.213 27.5976 31.2217C27.7533 31.2953 27.8999 31.33 28.051 31.33C28.4311 31.33 28.6693 31.1047 28.7471 31.031L29.6448 30.1815C29.8005 30.0341 30.0478 29.8564 30.3363 29.8564C30.6203 29.8564 30.8538 30.0255 30.9958 30.1728C31.0004 30.1771 31.0004 30.1771 31.005 30.1815L33.5284 32.5695C34.0001 33.0115 33.533 33.926 33.533 33.926Z" stroke="#DBFF00" stroke-width="2" stroke-linecap="round" stroke-linejoin="round"/>
</svg>
