<svg width="22" height="25" viewBox="0 0 22 25" fill="none" xmlns="http://www.w3.org/2000/svg">
<path d="M10.4091 0.652593C10.7782 0.449136 11.2218 0.449136 11.5909 0.652593L16.2463 3.21877L20.7538 6.04605C21.1125 6.2711 21.34 6.66859 21.3519 7.10594L21.4998 12.5L21.3519 17.8941C21.34 18.3314 21.1125 18.7289 20.7538 18.954L16.2463 21.7812L11.5909 24.3474C11.2218 24.5509 10.7782 24.5509 10.4091 24.3474L5.75373 21.7812L1.24625 18.954C0.887452 18.7289 0.660049 18.3314 0.64806 17.8941L0.500188 12.5L0.64806 7.10594C0.660049 6.66859 0.887452 6.2711 1.24625 6.04605L5.75373 3.21877L10.4091 0.652593Z" stroke="#C5E500"/>
</svg>
