<svg width="14" height="17" viewBox="0 0 14 17" fill="none" xmlns="http://www.w3.org/2000/svg">
<path d="M6.47034 0.146005C6.80084 -0.0486684 7.19916 -0.0486684 7.52966 0.146005L10.5 1.89564L13.376 3.82328C13.696 4.03776 13.8952 4.41357 13.9057 4.82272L14 8.5L13.9057 12.1773C13.8952 12.5864 13.696 12.9622 13.376 13.1767L10.5 15.1044L7.52966 16.854C7.19916 17.0487 6.80084 17.0487 6.47034 16.854L3.5 15.1044L0.623995 13.1767C0.303995 12.9622 0.104836 12.5864 0.0943395 12.1773L0 8.5L0.0943395 4.82272C0.104836 4.41357 0.303995 4.03776 0.623995 3.82328L3.5 1.89564L6.47034 0.146005Z" fill="#C5E500"/>
</svg>
