<svg width="30" height="25" viewBox="0 0 30 25" fill="none" xmlns="http://www.w3.org/2000/svg">
<path fill-rule="evenodd" clip-rule="evenodd" d="M4.81824 0.206655C4.7621 0.229181 4.65874 0.307502 4.58857 0.380724L4.46097 0.5138L4.43545 2.20553L4.40993 3.89726L2.48622 3.91023L0.562463 3.9232L0.380866 4.08935L0.199219 4.2555V14.2021C0.199219 23.1353 0.207334 24.1599 0.278891 24.259C0.278891 24.259 -0.588925 24.5172 15.1051 24.5172H29.5568L29.7303 24.3489L29.9039 24.1806V22.1186C29.9039 19.8821 29.8997 19.8462 29.6246 19.7246C29.5278 19.6819 28.9124 19.6655 27.4006 19.6655H25.3104V18.1555V16.6455H27.3741C28.5366 16.6455 29.4929 16.6252 29.5639 16.599C29.6332 16.5735 29.738 16.5024 29.7969 16.4412C29.902 16.3318 29.9039 16.2931 29.9039 14.2551C29.9039 11.9961 29.9013 11.9752 29.6123 11.8475C29.5312 11.8116 28.7947 11.7937 27.4006 11.7937H25.3104L25.3103 9.97434C25.3102 7.93417 25.3035 7.89209 24.9531 7.72134C24.79 7.64183 24.5633 7.6344 22.3501 7.63559C21.0167 7.63633 19.8281 7.63653 19.7088 7.63603L19.4919 7.63509V5.99886C19.4919 4.64408 19.4788 4.33808 19.4157 4.2196C19.252 3.91266 19.3342 3.92201 16.801 3.92201H14.4901V2.31143C14.4901 0.562268 14.4777 0.472016 14.2087 0.266757L14.068 0.159424L9.49417 0.162542C6.97857 0.164275 4.87438 0.184129 4.81824 0.206655ZM10.777 1.28686L13.3162 1.2981V2.6108V3.92355L9.45002 3.91038L5.58383 3.89726L5.56953 2.6011L5.55524 1.30498L5.69713 1.28914C5.85785 1.27127 7.11122 1.27068 10.777 1.28686ZM9.43726 6.32314V7.63509H5.99954H2.56181L1.94194 7.07888L1.32208 6.52271V5.76692V5.01118H5.37967H9.43726V6.32314ZM18.318 6.32314V7.63509H14.4646H10.6112V6.32314V5.01118H14.4646H18.318V6.32314ZM1.72605 8.43677C1.91091 8.6054 2.22291 8.89036 2.41941 9.06998C2.61591 9.24959 3.59203 10.1308 4.58857 11.0281C5.5851 11.9254 6.60843 12.8491 6.86266 13.0807C7.55821 13.7143 8.56776 14.6258 9.03227 15.0395C9.7164 15.6487 10.6523 16.4932 11.1964 16.9921C11.4784 17.2507 12.3177 18.0079 13.0614 18.6747C13.8051 19.3414 14.6553 20.1101 14.9509 20.3827C15.2464 20.6553 15.9239 21.2683 16.4564 21.7448C16.9889 22.2213 17.6084 22.7835 17.8331 22.9941L18.2415 23.3771L12.4741 23.3853C9.30201 23.3898 5.50089 23.3891 4.02714 23.3838L1.34759 23.374L1.33468 15.7521C1.32759 11.56 1.33708 8.13017 1.35586 8.13017C1.37459 8.13017 1.54119 8.26815 1.72605 8.43677ZM5.59812 9.48926C5.60592 9.86913 5.60011 10.2109 5.58515 10.2487C5.55131 10.3343 5.30658 10.1383 4.46097 9.3488L3.8485 8.77694L4.71616 8.78773L5.58383 8.79853L5.59812 9.48926ZM14.8474 10.0857V11.3977H10.7898H6.7322V10.0857V8.77377H10.7898H14.8474V10.0857ZM24.1365 10.0851V11.3965L20.0789 11.4095L16.0213 11.4224V10.0981V8.77377H20.0789H24.1365V10.0851ZM10.6112 13.9311V14.9298L9.90937 14.2626C9.52342 13.8957 9.04682 13.4467 8.85032 13.2648L8.49304 12.9342L9.5521 12.9333L10.6112 12.9324V13.9311ZM19.4919 14.2196V15.5068H18.9736H18.4553H18.388H15.1223C13.1245 15.5068 11.8377 15.5251 11.808 15.5539C11.7774 15.5837 11.7648 15.1095 11.7739 14.2667L11.7883 12.9324H15.6401H19.4919V14.2196ZM28.781 14.2196V15.5068H24.7234H20.6658V14.2196V12.9324H24.7234H28.781V14.2196ZM14.8474 17.6896V18.7336L14.7057 18.6178C14.4938 18.4447 12.5506 16.6812 12.5506 16.662C12.5506 16.6529 13.0674 16.6455 13.699 16.6455H14.8474V17.6896ZM24.1365 18.1555V19.6655H20.0789H16.0213V18.1555V16.6455H20.0789H24.1365V18.1555ZM19.4919 21.8475V22.9432L19.3005 22.7833C19.1953 22.6954 18.9254 22.453 18.7008 22.2446C18.4763 22.0363 18.0342 21.635 17.7183 21.353C17.4025 21.0709 17.1441 20.8224 17.1441 20.8007C17.1441 20.779 17.6724 20.7591 18.318 20.7565L19.4919 20.7518V21.8475ZM28.7555 22.0776V23.3757L25.2083 23.3808C23.2573 23.3836 21.4371 23.3842 21.1635 23.3822L20.6658 23.3786V22.0673V20.7561L24.7107 20.7678L28.7555 20.7794V22.0776Z" fill="black"/>
</svg>
