<svg width="20" height="33" viewBox="0 0 20 33" fill="none" xmlns="http://www.w3.org/2000/svg">
<path fill-rule="evenodd" clip-rule="evenodd" d="M12.2617 16.3286L12.2617 31.8058L12.6286 31.8058L13.1997 31.8058L13.1997 16.3286L13.1997 0.851494L12.6286 0.851494L12.2617 0.851494L12.2617 16.3286ZM15.8887 1.28394C15.8887 1.52182 15.7388 2.15092 15.5555 2.68209C15.0961 4.01351 15.0958 5.35079 15.5547 6.74074C16.0029 8.09857 16.0001 9.13372 15.5447 10.4541C15.0806 11.7996 15.0842 13.132 15.5555 14.498C15.785 15.1629 15.8887 15.7332 15.8887 16.3286C15.8887 16.9241 15.785 17.4944 15.5555 18.1592C15.0842 19.5253 15.0806 20.8577 15.5447 22.2032C16.0053 23.5384 16.0085 24.65 15.5555 25.9628C15.0949 27.2976 15.0949 28.6505 15.5554 29.95C15.7388 30.4672 15.8887 31.0964 15.8887 31.3481L15.8887 31.8058L16.1528 31.8058L17.0408 31.8058L16.9701 31.253C16.9311 30.9491 16.763 30.2742 16.5965 29.7533C16.1879 28.4757 16.1987 27.4372 16.6351 26.0574C17.0935 24.6075 17.0917 23.3922 16.6291 22.061C16.1802 20.769 16.1794 19.6752 16.6264 18.3161C16.8659 17.5879 16.9593 17.0306 16.9593 16.3286C16.9593 15.6267 16.8659 15.0694 16.6264 14.3412C16.1789 12.9806 16.1801 11.8877 16.6303 10.5962C17.0916 9.27275 17.0904 7.92767 16.6268 6.58389C16.1926 5.32504 16.1832 4.19651 16.5963 2.90397C16.7628 2.38308 16.937 1.70833 16.9836 1.40425L17.0683 0.851494L16.1666 0.851494L15.8887 0.851494L15.8887 1.28394Z" fill="black"/>
<path d="M19.0625 31.5401L19.0625 16.063L19.0625 0.585831L19.4294 0.585831L20.0005 0.585831L20.0005 16.063L20.0005 31.5401L19.4294 31.5401L19.0625 31.5401Z" fill="black"/>
<path d="M1 31.894C3.3077 31.3461 8.23079 29.5925 9.46157 26.9622M1 27.3731C3.3077 26.8252 8.23079 25.0716 9.46157 22.4413M1 22.4413C3.3077 21.8933 8.23079 20.1397 9.46157 17.5094" stroke="black"/>
<path d="M1 1.43262C3.3077 1.94837 8.23079 3.59878 9.46157 6.07439M1 5.68758C3.3077 6.20333 8.23079 7.85374 9.46157 10.3294M1 10.3294C3.3077 10.8451 8.23079 12.4955 9.46157 14.9711" stroke="black"/>
</svg>
