<svg width="130" height="30" viewBox="0 0 130 30" fill="none" xmlns="http://www.w3.org/2000/svg">
<path d="M33.225 15.5059L39.6149 6.54602H35.1003L30.9676 12.3109L26.9739 6.54602H22.112L28.5367 15.749L21.73 25.2297H26.2794L30.7593 18.9439L35.1697 25.2297H40.0317L33.225 15.5059Z" fill="#1E1E1E"/>
<path fill-rule="evenodd" clip-rule="evenodd" d="M16.7022 10.4817L10.9737 10.4817L7.36782 15.7128L11.0043 21.125L16.6715 21.125L20.4716 15.7137L16.7022 10.4817ZM25.4029 15.6839L18.7599 6.46318L8.86298 6.46321L2.5071 15.6839L8.86298 25.1435L18.7599 25.1434L25.4029 15.6839Z" fill="#1E1E1E"/>
<path d="M46.2217 15.3496C46.2217 12.0029 47.2687 9.5877 50.3401 9.5877C53.4115 9.5877 53.6558 12.0374 53.6558 14.5561V25.2174H57.8091V15.3496C57.8091 12.0029 58.8561 9.5877 61.9275 9.5877C64.9989 9.5877 65.2432 12.0374 65.2432 14.5561V25.2174H69.3965V13.5555C69.3965 9.13917 67.7212 6.24095 63.2538 6.24095C60.9153 6.24095 58.7863 7.17252 57.1459 9.5187C56.2734 7.44854 54.5981 6.24095 51.6664 6.24095C49.1534 6.24095 47.3036 7.31053 46.2217 9.24268V6.65498H42.0684V25.2174H46.2217V15.3496Z" fill="#1E1E1E"/>
<path d="M90.6945 17.1093C91.0784 10.8988 87.4486 6.24095 81.6898 6.24095C76.3499 6.24095 72.4758 10.2088 72.4758 15.7982C72.4758 21.1461 75.931 25.6659 81.9691 25.6659C86.7855 25.6659 89.6475 22.6297 90.4851 19.6625H86.4016C85.6686 21.4221 83.9934 22.2502 81.7945 22.2502C79.4212 22.2502 76.9781 20.5595 76.6989 17.1093H90.6945ZM81.6898 9.44969C84.133 9.44969 86.3667 11.2093 86.4714 14.1075H76.6989C77.0828 10.6228 79.7353 9.44969 81.6898 9.44969Z" fill="#1E1E1E"/>
<path d="M94.7077 6.65498H91.9155V9.62221H94.7077V20.3525C94.7077 24.1478 95.5104 25.2174 99.5241 25.2174H102.595V22.0776H101.095C99.3147 22.0776 98.861 21.6291 98.861 19.7315V9.62221H102.63V6.65498H98.861V1.75562H94.7077V6.65498Z" fill="#1E1E1E"/>
<path d="M117.598 17.9028C117.598 21.0771 115.783 22.5952 112.712 22.5952C110.617 22.5952 109.256 21.6291 109.256 20.0075C109.256 17.9028 111.664 17.0403 117.598 16.4882V17.9028ZM111.804 25.6659C114.596 25.6659 116.76 24.7343 117.982 22.6987C118.086 23.9753 118.191 24.4238 118.331 25.2174H122.135C121.751 23.6648 121.577 21.2151 121.577 18.8689C121.577 17.1783 121.646 14.9701 121.646 14.073C121.751 8.13859 118.226 6.10294 113.724 6.10294C109.186 6.10294 106.01 8.72514 105.731 12.4859H109.815C109.919 10.2433 111.49 9.13917 113.584 9.13917C115.678 9.13917 117.493 10.1052 117.493 13.2795V13.6245C110.652 14.3491 104.859 15.4531 104.859 20.111C104.859 23.4922 107.721 25.6659 111.804 25.6659Z" fill="#1E1E1E"/>
<path d="M130 0.203003H125.846V25.2174H130V0.203003Z" fill="#1E1E1E"/>
</svg>
