<svg width="10" height="10" viewBox="0 0 50 30" fill="none" xmlns="http://www.w3.org/2000/svg">
<path d="M49.9427 24.7813C49.9423 24.78 49.9419 24.7791 49.9415 24.7778C49.9412 24.7769 49.9408 24.7756 49.9404 24.7747L41.9249 3.42969C41.6331 2.65274 41.1921 1.97788 40.6493 1.47832C39.6151 0.525639 38.3135 0.000657281 36.9849 0.000657281H32.6063C32.5876 0.000219094 32.5693 0.000219094 32.5506 0.000657281H25.0227C25.0154 0.000657281 25.0078 0.000219092 25.0002 0.000219092C24.9925 0.000219092 24.9849 0.000657281 24.9777 0.000657281H17.4505C17.4314 -0.000219094 17.4119 -0.000219094 17.3932 0.000657281H13.8997C13.4954 0.000657281 13.1673 0.377522 13.1673 0.842031C13.1673 1.30698 13.4954 1.6834 13.8997 1.6834H16.5159L15.1952 8.71544C14.0008 7.61377 12.502 7.00246 10.9227 7.00246C9.91907 7.00246 8.9448 7.25181 8.06054 7.71807L9.42011 4.09709C9.61847 3.56904 9.91373 3.11549 10.2738 2.78464C10.2738 2.78464 10.8995 2.28376 11.2428 2.11023C11.6128 1.92267 11.7807 1.42617 11.6174 1.00066C11.4541 0.575596 11.0215 0.383219 10.6515 0.570337C10.1937 0.802153 9.76267 1.10145 9.37014 1.46035C9.36937 1.46079 9.36022 1.46955 9.35984 1.46999C8.81242 1.97219 8.36801 2.65011 8.07504 3.43057L2.91487 17.1717C2.90801 17.1888 2.90152 17.2059 2.8958 17.2234L0.0599405 24.7747C0.0595591 24.7756 0.0591776 24.7769 0.0587961 24.7778C0.0584146 24.7791 0.0580332 24.78 0.0576517 24.7813C0.0175972 24.8904 -0.00109494 25.0043 4.94817e-05 25.117V28.1648C4.94817e-05 28.6985 0.275853 29.1797 0.702339 29.3913C1.12806 29.6021 1.62169 29.5026 1.95891 29.1367C3.27231 27.713 4.99122 26.929 6.79902 26.929C8.7758 26.929 10.6748 27.8904 12.0084 29.5662C12.2274 29.8418 12.5402 30 12.8663 30C13.1925 30 13.5053 29.8418 13.7243 29.5666C15.0579 27.8904 16.9565 26.929 18.9329 26.929C20.9097 26.929 22.8086 27.8904 24.1422 29.5662C24.3612 29.8418 24.674 30 25.0002 30C25.3263 30 25.6391 29.8418 25.8581 29.5666C27.1917 27.8904 29.0903 26.929 31.0663 26.929C33.0435 26.929 34.9425 27.8904 36.2761 29.5662C36.4951 29.8418 36.8079 30 37.134 30C37.4602 30 37.773 29.8418 37.992 29.5666C38.9567 28.3541 40.1976 27.5162 41.5816 27.1428C41.9753 27.0368 42.2194 26.5841 42.1271 26.1314C42.0348 25.6792 41.6407 25.3987 41.2467 25.5048C39.6796 25.9272 38.2643 26.8427 37.134 28.1608C35.5383 26.3041 33.3452 25.2462 31.0663 25.2462C28.7882 25.2462 26.5959 26.3041 25.0002 28.1612C23.4045 26.3041 21.2118 25.2462 18.9329 25.2462C16.6547 25.2462 14.462 26.3041 12.8663 28.1612C11.271 26.3041 9.07793 25.2462 6.79902 25.2462C4.84359 25.2462 2.974 26.0061 1.4649 27.4005V25.4128C4.35684 21.5727 9.55439 21.7269 12.296 25.6358C12.3063 25.6455 12.4551 25.89 12.7591 25.9404C13.0338 25.9846 13.2867 25.8567 13.4439 25.6257C14.7908 23.7112 16.7909 22.6134 18.9329 22.6134C20.96 22.6134 22.8689 23.5039 24.444 25.6555C24.4543 25.6696 24.4631 25.6805 24.4726 25.6915C24.4901 25.7129 24.5138 25.7379 24.5317 25.7546C24.6599 25.8773 24.8327 25.9553 25.0204 25.9491C25.1978 25.9426 25.358 25.8668 25.4831 25.7405C25.4923 25.7313 25.503 25.7204 25.5117 25.7103C25.5239 25.6963 25.5323 25.6866 25.5434 25.6722C25.5533 25.6595 25.559 25.652 25.5693 25.6371C25.5697 25.6367 25.5701 25.6363 25.5705 25.6358C26.9178 23.7151 28.9209 22.6134 31.0663 22.6134C34.741 22.6134 36.6591 25.7489 36.6492 25.7388C37.237 26.3326 37.8127 25.5271 37.6921 25.6529C40.8305 21.4254 45.8465 21.8444 48.5354 25.4128V27.4001C47.359 26.3124 45.9639 25.6091 44.4629 25.3527C44.0635 25.2857 43.6904 25.6016 43.6309 26.0613C43.5714 26.521 43.8475 26.9491 44.2477 27.0175C45.6748 27.2607 46.9867 27.9939 48.0414 29.1363C48.3787 29.5022 48.8719 29.6021 49.2976 29.3913C49.7245 29.1797 49.9999 28.6985 49.9999 28.1648V25.117C50.0014 25.0043 49.9827 24.8904 49.9427 24.7813ZM12.4414 23.3812C9.7394 20.6314 5.7782 20.1463 2.63106 22.1765L4.20348 17.9894C5.37804 16.51 7.05613 15.6638 8.82539 15.6638C10.608 15.6638 12.2773 16.5091 13.4526 17.9951L12.4414 23.3812ZM13.8154 16.0634C12.4387 14.726 10.6809 13.981 8.82539 13.981C7.60507 13.981 6.41907 14.3084 5.35706 14.9171L6.93139 10.7247C7.93695 9.42711 9.38539 8.68521 10.9227 8.68521C12.4257 8.68521 13.8345 9.38767 14.8366 10.6243L13.8154 16.0634ZM24.2677 23.0828C22.7697 21.6976 20.9009 20.9303 18.9325 20.9303C17.1674 20.9303 15.4817 21.5477 14.0722 22.6748L14.9415 18.0468C16.1187 16.5288 17.8056 15.6638 19.6081 15.6638C21.4071 15.6638 23.0909 16.5249 24.2677 18.0358V23.0828ZM24.2677 15.7602C22.9456 14.6138 21.3182 13.981 19.6081 13.981C18.1062 13.981 16.6685 14.4692 15.4451 15.3649L16.3167 10.7216C17.3231 9.42448 18.7654 8.68477 20.3073 8.68477C21.8336 8.68477 23.2626 9.40914 24.2677 10.6822V15.7602ZM24.2677 8.44419C23.1291 7.51386 21.7516 7.00246 20.3073 7.00246C19.053 7.00246 17.8499 7.38809 16.8096 8.09888L18.0143 1.6834H24.2677V8.44419ZM36.9849 1.6834C37.9961 1.6834 38.9464 2.0664 39.733 2.79077C40.0897 3.11944 40.3826 3.5708 40.5799 4.09622L41.9398 7.71807C41.0552 7.25181 40.0805 7.00246 39.0765 7.00246C37.4979 7.00246 35.9991 7.61377 34.8051 8.71544L33.4845 1.6834H36.9849ZM25.7326 1.6834H31.9861L33.1907 8.09888C32.1501 7.38809 30.9462 7.00246 29.6919 7.00246C28.2476 7.00246 26.8709 7.51386 25.7326 8.44419V1.6834ZM25.7326 10.6822C26.7374 9.40914 28.166 8.68521 29.6919 8.68521C31.2342 8.68521 32.6769 9.42448 33.6832 10.7216L34.5553 15.3649C33.3315 14.4692 31.8934 13.981 30.3907 13.981C28.681 13.981 27.0544 14.6138 25.7326 15.7602V10.6822ZM31.0663 20.9303C29.0987 20.9303 27.2303 21.6976 25.7326 23.0828V18.0363C26.9094 16.5249 28.5925 15.6638 30.3911 15.6638C32.1943 15.6638 33.8816 16.5288 35.0588 18.0468L35.9278 22.6752C34.5183 21.5481 32.8325 20.9303 31.0663 20.9303ZM35.1633 10.6243C36.1658 9.38767 37.5739 8.68521 39.0765 8.68521C40.6146 8.68521 42.0634 9.42711 43.069 10.7247L44.6433 14.9171C43.5809 14.3084 42.3949 13.981 41.1738 13.981C39.3187 13.981 37.5613 14.726 36.1849 16.0634L35.1633 10.6243ZM37.559 23.3812L36.5477 17.9951C37.7226 16.5091 39.392 15.6638 41.1738 15.6638C42.9438 15.6638 44.6219 16.51 45.7969 17.9894L47.3697 22.1765C44.2801 20.1844 40.3155 20.5753 37.559 23.3812Z" fill="black"/>
</svg>
