<svg width="47" height="42" viewBox="0 0 47 42" fill="none" xmlns="http://www.w3.org/2000/svg">
<g opacity="0.2">
<path d="M45.6361 19.2829C46.1617 20.2678 46.1617 21.4549 45.6361 22.4398L40.9126 31.292L35.7085 39.8631C35.1295 40.8167 34.1149 41.4103 33.0104 41.4415L23.0828 41.7227L13.1552 41.4415C12.0506 41.4103 11.0361 40.8167 10.457 39.8631L5.25297 31.292L0.529487 22.4398C0.00392439 21.4549 0.00392444 20.2678 0.529487 19.2829L5.25297 10.4307L10.457 1.85962C11.0361 0.905963 12.0506 0.312431 13.1552 0.281148L23.0828 -1.00307e-06L33.0104 0.281149C34.1149 0.312432 35.1295 0.905964 35.7085 1.85963L40.9126 10.4307L45.6361 19.2829Z" fill="white"/>
<path fill-rule="evenodd" clip-rule="evenodd" d="M23.1971 12.4366L31.2888 20.6243L23.1971 28.8119L21.544 27.1344L26.8064 21.8096L14.6602 21.8096L14.6602 19.4389L26.8064 19.4389L21.544 14.1141L23.1971 12.4366Z" fill="black"/>
</g>
</svg>
