<svg width="136" height="34" viewBox="0 0 136 34" fill="none" xmlns="http://www.w3.org/2000/svg">
<g filter="url(#filter0_d_581_337)">
<path d="M35.2251 15.3028L41.615 6.343H37.1004L32.9677 12.1079L28.974 6.343H24.1121L30.5368 15.5459L23.7301 25.0267H28.2794L32.7594 18.7409L37.1698 25.0267H42.0318L35.2251 15.3028Z" fill="#1E1E1E"/>
<path fill-rule="evenodd" clip-rule="evenodd" d="M18.7024 10.2787L12.9738 10.2788L9.36797 15.5099L13.0044 20.9221L18.6716 20.9221L22.4718 15.5108L18.7024 10.2787ZM27.4031 15.481L20.76 6.26027L10.8631 6.2603L4.50725 15.481L10.8631 24.9406L20.76 24.9405L27.4031 15.481Z" fill="#1E1E1E"/>
</g>
<g filter="url(#filter1_d_581_337)">
<path d="M48.2219 15.1466C48.2219 11.7999 49.2689 9.3847 52.3403 9.3847C55.4117 9.3847 55.656 11.8344 55.656 14.3531V25.0144H59.8093V15.1466C59.8093 11.7999 60.8564 9.3847 63.9277 9.3847C66.9991 9.3847 67.2434 11.8344 67.2434 14.3531V25.0144H71.3967V13.3525C71.3967 8.93617 69.7214 6.03795 65.254 6.03795C62.9156 6.03795 60.7865 6.96952 59.1462 9.3157C58.2736 7.24554 56.5983 6.03795 53.6666 6.03795C51.1536 6.03795 49.3038 7.10753 48.2219 9.03967V6.45198H44.0686V25.0144H48.2219V15.1466Z" fill="#1E1E1E"/>
<path d="M92.6947 16.9063C93.0786 10.6958 89.4488 6.03795 83.69 6.03795C78.3501 6.03795 74.476 10.0057 74.476 15.5952C74.476 20.9431 77.9313 25.4629 83.9693 25.4629C88.7857 25.4629 91.6477 22.4267 92.4853 19.4595H88.4018C87.6689 21.2191 85.9936 22.0471 83.7948 22.0471C81.4214 22.0471 78.9783 20.3565 78.6991 16.9063H92.6947ZM83.69 9.24669C86.1332 9.24669 88.3669 11.0063 88.4716 13.9045H78.6991C79.083 10.4198 81.7355 9.24669 83.69 9.24669Z" fill="#1E1E1E"/>
<path d="M96.7079 6.45198H93.9157V9.4192H96.7079V20.1495C96.7079 23.9448 97.5106 25.0144 101.524 25.0144H104.596V21.8746H103.095C101.315 21.8746 100.861 21.4261 100.861 19.5285V9.4192H104.631V6.45198H100.861V1.55262H96.7079V6.45198Z" fill="#1E1E1E"/>
<path d="M119.598 17.6998C119.598 20.8741 117.783 22.3922 114.712 22.3922C112.618 22.3922 111.256 21.4261 111.256 19.8045C111.256 17.6998 113.665 16.8373 119.598 16.2852V17.6998ZM113.804 25.4629C116.596 25.4629 118.76 24.5313 119.982 22.4957C120.087 23.7723 120.191 24.2208 120.331 25.0144H124.135C123.751 23.4618 123.577 21.0121 123.577 18.6659C123.577 16.9753 123.647 14.7671 123.647 13.87C123.751 7.93559 120.226 5.89994 115.724 5.89994C111.187 5.89994 108.011 8.52214 107.731 12.2829H111.815C111.92 10.0403 113.49 8.93617 115.584 8.93617C117.678 8.93617 119.493 9.90224 119.493 13.0765V13.4215C112.653 14.1461 106.859 15.2501 106.859 19.908C106.859 23.2892 109.721 25.4629 113.804 25.4629Z" fill="#1E1E1E"/>
<path d="M132 0H127.847V25.0144H132V0Z" fill="#1E1E1E"/>
</g>
<defs>
<filter id="filter0_d_581_337" x="0.507263" y="6.26027" width="45.5245" height="26.7664" filterUnits="userSpaceOnUse" color-interpolation-filters="sRGB">
<feFlood flood-opacity="0" result="BackgroundImageFix"/>
<feColorMatrix in="SourceAlpha" type="matrix" values="0 0 0 0 0 0 0 0 0 0 0 0 0 0 0 0 0 0 127 0" result="hardAlpha"/>
<feOffset dy="4"/>
<feGaussianBlur stdDeviation="2"/>
<feComposite in2="hardAlpha" operator="out"/>
<feColorMatrix type="matrix" values="0 0 0 0 0 0 0 0 0 0 0 0 0 0 0 0 0 0 0.25 0"/>
<feBlend mode="normal" in2="BackgroundImageFix" result="effect1_dropShadow_581_337"/>
<feBlend mode="normal" in="SourceGraphic" in2="effect1_dropShadow_581_337" result="shape"/>
</filter>
<filter id="filter1_d_581_337" x="40.0686" y="0" width="95.9313" height="33.4629" filterUnits="userSpaceOnUse" color-interpolation-filters="sRGB">
<feFlood flood-opacity="0" result="BackgroundImageFix"/>
<feColorMatrix in="SourceAlpha" type="matrix" values="0 0 0 0 0 0 0 0 0 0 0 0 0 0 0 0 0 0 127 0" result="hardAlpha"/>
<feOffset dy="4"/>
<feGaussianBlur stdDeviation="2"/>
<feComposite in2="hardAlpha" operator="out"/>
<feColorMatrix type="matrix" values="0 0 0 0 0 0 0 0 0 0 0 0 0 0 0 0 0 0 0.25 0"/>
<feBlend mode="normal" in2="BackgroundImageFix" result="effect1_dropShadow_581_337"/>
<feBlend mode="normal" in="SourceGraphic" in2="effect1_dropShadow_581_337" result="shape"/>
</filter>
</defs>
</svg>
