<svg width="36" height="33" viewBox="0 0 36 33" fill="none" xmlns="http://www.w3.org/2000/svg">
<path d="M35.6838 15.0378C36.0937 15.806 36.0937 16.7317 35.6838 17.4998L32.0002 24.4033L27.9417 31.0875C27.4902 31.8312 26.6989 32.2941 25.8375 32.3185L18.5 32.5378L10.1538 32.3185C9.29238 32.2941 8.50117 31.8312 8.0496 31.0875L3.99113 24.4033L0.307441 17.4998C-0.102422 16.7317 -0.102421 15.806 0.307441 15.0378L3.99113 8.13438L8.04961 1.45018C8.50117 0.706454 9.29238 0.243582 10.1538 0.219187L18.5 -8.08276e-07L25.8375 0.219186C26.6989 0.243581 27.4902 0.706453 27.9417 1.45017L32.0002 8.13438L35.6838 15.0378Z" fill="#C5E500"/>
<path d="M24.7579 21.3148C24.7579 21.3148 23.8743 22.1827 23.6578 22.4371C23.305 22.8135 22.8894 22.9913 22.3446 22.9913C22.2922 22.9913 22.2363 22.9913 22.184 22.9878C21.1467 22.9216 20.1828 22.5173 19.4598 22.1722C17.483 21.2172 15.7473 19.8614 14.3049 18.1431C13.1139 16.7107 12.3176 15.3862 11.7903 13.9642C11.4655 13.0963 11.3467 12.4202 11.3991 11.7824C11.434 11.3746 11.5912 11.0365 11.8811 10.7472L13.072 9.55869C13.2432 9.39837 13.4248 9.31123 13.6029 9.31123C13.8229 9.31123 14.001 9.44368 14.1128 9.55521C14.1163 9.55869 14.1198 9.56218 14.1233 9.56567C14.3363 9.76433 14.5389 9.96997 14.7519 10.1895C14.8602 10.3011 14.9719 10.4126 15.0837 10.5276L16.0372 11.4791C16.4074 11.8486 16.4074 12.1901 16.0372 12.5596C15.9359 12.6607 15.8381 12.7617 15.7368 12.8593C15.4434 13.1591 15.6739 12.9291 15.37 13.2009C15.3631 13.2079 15.3561 13.2114 15.3526 13.2184C15.0522 13.5181 15.1081 13.8109 15.171 14.0095C15.1745 14.02 15.178 14.0305 15.1814 14.0409C15.4294 14.6404 15.7787 15.205 16.3095 15.8777L16.313 15.8812C17.2769 17.0662 18.2933 17.9898 19.4144 18.6974C19.5575 18.788 19.7042 18.8612 19.8439 18.9309C19.9697 18.9936 20.0884 19.0529 20.1897 19.1156C20.2037 19.1226 20.2176 19.133 20.2316 19.14C20.3503 19.1993 20.4621 19.2271 20.5774 19.2271C20.8672 19.2271 21.0488 19.0459 21.1082 18.9866L21.7928 18.3035C21.9115 18.185 22.1001 18.0421 22.3202 18.0421C22.5367 18.0421 22.7148 18.178 22.8231 18.2965C22.8266 18.3 22.8266 18.3 22.8301 18.3035L24.7544 20.2239C25.1142 20.5794 24.7579 21.3148 24.7579 21.3148Z" stroke="black" stroke-linecap="round" stroke-linejoin="round"/>
</svg>
