<svg width="46" height="43" viewBox="0 0 46 43"  xmlns="http://www.w3.org/2000/svg">
<path  d="M1.80005 24.7616C0.676848 22.6842 0.676849 20.1805 1.80005 18.1031L5.5745 11.1221L9.73298 4.36286C10.9705 2.35143 13.1387 1.09957 15.4994 1.0336L23.4324 0.811881L31.3653 1.0336C33.726 1.09957 35.8943 2.35144 37.1317 4.36286L41.2902 11.1221L45.0647 18.1031C46.1879 20.1805 46.1879 22.6842 45.0647 24.7616L41.2902 31.7426L37.1317 38.5018C35.8943 40.5133 33.726 41.7651 31.3653 41.8311L23.4324 42.0528L15.4994 41.8311C13.1387 41.7651 10.9705 40.5133 9.73298 38.5018L5.5745 31.7426L1.80005 24.7616Z" fill="#C5E500"/>
</svg>
