<svg width="14" height="19" viewBox="0 0 14 19" fill="none" xmlns="http://www.w3.org/2000/svg">
<path fill-rule="evenodd" clip-rule="evenodd" d="M0.5 5.07143C0.5 2.5467 2.5467 0.5 5.07143 0.5C7.59616 0.5 9.64286 2.5467 9.64286 5.07143V11.2857C9.64286 12.7453 8.45961 13.9286 7 13.9286C5.54039 13.9286 4.35714 12.7453 4.35714 11.2857V5.28571C4.35714 5.00957 4.581 4.78571 4.85714 4.78571C5.13329 4.78571 5.35714 5.00957 5.35714 5.28571V11.2857C5.35714 12.193 6.09268 12.9286 7 12.9286C7.90732 12.9286 8.64286 12.193 8.64286 11.2857V5.07143C8.64286 3.09898 7.04387 1.5 5.07143 1.5C3.09898 1.5 1.5 3.09898 1.5 5.07143V11.7143C1.5 14.7519 3.96243 17.2143 7 17.2143C10.0376 17.2143 12.5 14.7519 12.5 11.7143V5.28571C12.5 5.00957 12.7239 4.78571 13 4.78571C13.2761 4.78571 13.5 5.00957 13.5 5.28571V11.7143C13.5 15.3041 10.5899 18.2143 7 18.2143C3.41015 18.2143 0.5 15.3041 0.5 11.7143V5.07143Z" fill="#6A6A6A"/>
</svg>
