<svg width="37" height="32" viewBox="0 0 37 32" fill="none" xmlns="http://www.w3.org/2000/svg">
<g id="alert-triangle">
<path id="Icon (Stroke)" fill-rule="evenodd" clip-rule="evenodd" d="M15.463 4.97216L5.30386 23.6535C5.29307 23.6733 5.28178 23.6929 5.27002 23.7122C4.75645 24.5538 4.59339 25.2758 4.75204 25.8267C5.32769 27.8259 7.15846 29.285 9.32367 29.285H29.6763C31.8415 29.285 33.6723 27.8259 34.248 25.8267C34.4066 25.2758 34.2435 24.5538 33.73 23.7122C33.7182 23.6929 33.7069 23.6733 33.6961 23.6535L23.537 4.97217C21.6745 1.96258 17.3255 1.96258 15.463 4.97216ZM13.1535 3.57641C16.0634 -1.19214 22.9366 -1.19213 25.8465 3.57642C25.8582 3.5957 25.8695 3.61527 25.8803 3.63512L36.0412 22.3195C36.7047 23.417 37.3006 24.9612 36.8334 26.5838C35.9327 29.7117 33.0713 32 29.6763 32H9.32367C5.92873 32 3.06728 29.7117 2.16665 26.5838C1.69941 24.9612 2.29531 23.417 2.95885 22.3195L13.1197 3.63511C13.1305 3.61526 13.1418 3.59569 13.1535 3.57641ZM19.5 8.07987C20.2434 8.07987 20.8461 8.68764 20.8461 9.43736V17.6473C20.8461 18.3971 20.2434 19.0048 19.5 19.0048C18.7566 19.0048 18.1539 18.3971 18.1539 17.6473V9.43736C18.1539 8.68764 18.7566 8.07987 19.5 8.07987ZM19.5 22.3752C20.2434 22.3752 20.8461 22.9829 20.8461 23.7327V23.8048C20.8461 24.5545 20.2434 25.1623 19.5 25.1623C18.7566 25.1623 18.1539 24.5545 18.1539 23.8048V23.7327C18.1539 22.9829 18.7566 22.3752 19.5 22.3752Z" fill="#6A6A6A"/>
</g>
</svg>
