<svg width="130" height="30" viewBox="0 0 130 30" fill="none" xmlns="http://www.w3.org/2000/svg">
<path d="M33.2251 15.5059L39.6151 6.54602H35.1004L30.9678 12.3109L26.974 6.54602H22.1121L28.5368 15.749L21.7301 25.2297H26.2795L30.7594 18.9439L35.1699 25.2297H40.0318L33.2251 15.5059Z" fill="#1E1E1E"/>
<path fill-rule="evenodd" clip-rule="evenodd" d="M16.7023 10.4817L10.9738 10.4817L7.36794 15.7128L11.0044 21.125L16.6716 21.125L20.4718 15.7137L16.7023 10.4817ZM25.4031 15.6839L18.76 6.46318L8.8631 6.46321L2.50722 15.6839L8.8631 25.1435L18.76 25.1434L25.4031 15.6839Z" fill="#1E1E1E"/>
<path d="M46.2219 15.3496C46.2219 12.0029 47.269 9.5877 50.3403 9.5877C53.4117 9.5877 53.656 12.0374 53.656 14.5561V25.2174H57.8093V15.3496C57.8093 12.0029 58.8564 9.5877 61.9277 9.5877C64.9991 9.5877 65.2434 12.0374 65.2434 14.5561V25.2174H69.3967V13.5555C69.3967 9.13917 67.7214 6.24095 63.254 6.24095C60.9156 6.24095 58.7866 7.17252 57.1462 9.5187C56.2736 7.44854 54.5984 6.24095 51.6666 6.24095C49.1537 6.24095 47.3039 7.31053 46.2219 9.24268V6.65498H42.0686V25.2174H46.2219V15.3496Z" fill="#1E1E1E"/>
<path d="M90.6948 17.1093C91.0787 10.8988 87.4489 6.24095 81.6901 6.24095C76.3501 6.24095 72.476 10.2088 72.476 15.7982C72.476 21.1461 75.9313 25.6659 81.9693 25.6659C86.7857 25.6659 89.6477 22.6297 90.4853 19.6625H86.4018C85.6689 21.4221 83.9936 22.2502 81.7948 22.2502C79.4215 22.2502 76.9783 20.5595 76.6991 17.1093H90.6948ZM81.6901 9.44969C84.1332 9.44969 86.3669 11.2093 86.4716 14.1075H76.6991C77.083 10.6228 79.7356 9.44969 81.6901 9.44969Z" fill="#1E1E1E"/>
<path d="M94.7079 6.65498H91.9158V9.62221H94.7079V20.3525C94.7079 24.1478 95.5107 25.2174 99.5244 25.2174H102.596V22.0776H101.095C99.315 22.0776 98.8612 21.6291 98.8612 19.7315V9.62221H102.631V6.65498H98.8612V1.75562H94.7079V6.65498Z" fill="#1E1E1E"/>
<path d="M117.598 17.9028C117.598 21.0771 115.783 22.5952 112.712 22.5952C110.618 22.5952 109.257 21.6291 109.257 20.0075C109.257 17.9028 111.665 17.0403 117.598 16.4882V17.9028ZM111.804 25.6659C114.597 25.6659 116.76 24.7343 117.982 22.6987C118.087 23.9753 118.191 24.4238 118.331 25.2174H122.135C121.751 23.6648 121.577 21.2151 121.577 18.8689C121.577 17.1783 121.647 14.9701 121.647 14.073C121.751 8.13859 118.226 6.10294 113.724 6.10294C109.187 6.10294 106.011 8.72514 105.731 12.4859H109.815C109.92 10.2433 111.49 9.13917 113.584 9.13917C115.678 9.13917 117.493 10.1052 117.493 13.2795V13.6245C110.653 14.3491 104.859 15.4531 104.859 20.111C104.859 23.4922 107.721 25.6659 111.804 25.6659Z" fill="#1E1E1E"/>
<path d="M130 0.203003H125.847V25.2174H130V0.203003Z" fill="#1E1E1E"/>
</svg>
