<svg width="244" height="77" viewBox="0 0 244 77" fill="none" xmlns="http://www.w3.org/2000/svg">
<path d="M21.3373 64.4817C20.7755 60.275 17.2177 58.3286 13.7222 58.3286C8.69757 58.3286 5.29578 62.033 5.29578 67.1815C5.29578 72.2672 8.51032 76.003 13.535 76.003C16.9992 76.003 20.4946 74.4648 21.4933 69.8499H17.3737C16.8119 71.8905 15.2203 72.644 13.7534 72.644C11.3816 72.644 9.69626 70.6662 9.69626 67.1187C9.69626 63.6027 11.4752 61.6877 13.7222 61.6877C15.3451 61.6877 16.9056 62.8806 17.2177 64.4817H21.3373Z" fill="#737373"/>
<path d="M23.094 67.1815C23.094 73.1149 27.276 76.003 31.5205 76.003C35.7649 76.003 39.9469 73.1149 39.9469 67.1815C39.9469 61.2481 35.7649 58.3286 31.5205 58.3286C27.276 58.3286 23.094 61.2481 23.094 67.1815ZM27.4633 67.1815C27.4633 63.634 29.1486 61.7191 31.5205 61.7191C33.8923 61.7191 35.5776 63.634 35.5776 67.1815C35.5776 70.6976 33.8923 72.6126 31.5205 72.6126C29.1486 72.6126 27.4633 70.6976 27.4633 67.1815Z" fill="#737373"/>
<path d="M46.9938 60.9342V58.7053H42.687V75.5949H46.9938V66.8048C46.9938 64.1363 47.618 61.8132 50.458 61.8132C52.8924 61.8132 53.3605 63.6968 53.3605 65.8944V75.5949H57.6674V64.9526C57.6674 60.8086 55.8884 58.3286 51.8625 58.3286C49.8027 58.3286 47.9613 59.239 46.9938 60.9342Z" fill="#737373"/>
<path d="M70.7347 63.791H74.7607C74.1989 59.8982 70.8596 58.2658 67.3641 58.2658C63.7439 58.2658 60.4981 60.2436 60.4981 63.2887C60.4981 66.3653 62.5891 67.6838 65.7413 68.3431L68.238 68.8767C69.6736 69.1907 70.9844 69.693 70.9844 70.9487C70.9844 72.1731 69.7984 72.8637 67.9571 72.8637C65.7413 72.8637 64.5865 71.6394 64.3368 70.0069H60.186C60.5917 73.8683 63.7127 76.003 67.8323 76.003C71.6398 76.003 75.104 73.9311 75.104 70.5406C75.104 67.0559 72.264 66.2083 68.9246 65.4549L66.6775 64.9526C65.0859 64.6072 64.4305 63.9166 64.4305 63.0062C64.4305 61.9702 65.554 61.3737 67.1457 61.3737C69.1118 61.3737 70.4226 62.3783 70.7347 63.791Z" fill="#737373"/>
<path d="M78.6036 54.1218V58.7053H76.2317V61.6877H78.6036V71.0429C78.6036 74.402 79.3526 75.5949 83.1913 75.5949H86.3434V72.487H85.0326C83.5034 72.487 82.9104 72.1417 82.9104 70.415V61.6877H86.4058V58.7053H82.9104V54.1218H78.6036Z" fill="#737373"/>
<path d="M98.7778 62.8806V58.7995C98.4969 58.7681 98.1224 58.7367 97.8415 58.7367C95.9066 58.7367 94.3773 59.5843 93.4098 61.6563V58.7053H89.1654V75.5949H93.4723V66.742C93.4723 63.5713 94.8767 62.7864 96.9989 62.7864C97.6231 62.7864 98.1536 62.8178 98.7778 62.8806Z" fill="#737373"/>
<path d="M111.321 73.366V75.5949H115.628V58.7053H111.321V67.4954C111.321 70.1639 110.666 72.5184 107.826 72.5184C105.391 72.5184 105.079 70.6976 105.079 68.4372V58.7053H100.772V69.379C100.772 73.523 102.395 76.003 106.421 76.003C108.481 76.003 110.353 75.0612 111.321 73.366Z" fill="#737373"/>
<path d="M134.44 64.4817C133.878 60.275 130.32 58.3286 126.825 58.3286C121.8 58.3286 118.398 62.033 118.398 67.1815C118.398 72.2672 121.613 76.003 126.638 76.003C130.102 76.003 133.597 74.4648 134.596 69.8499H130.476C129.915 71.8905 128.323 72.644 126.856 72.644C124.484 72.644 122.799 70.6662 122.799 67.1187C122.799 63.6027 124.578 61.6877 126.825 61.6877C128.448 61.6877 130.008 62.8806 130.32 64.4817H134.44Z" fill="#737373"/>
<path d="M137.761 54.1218V58.7053H135.389V61.6877H137.761V71.0429C137.761 74.402 138.51 75.5949 142.348 75.5949H145.501V72.487H144.19C142.661 72.487 142.068 72.1417 142.068 70.415V61.6877H145.563V58.7053H142.068V54.1218H137.761Z" fill="#737373"/>
<path d="M152.629 52.8347H148.323V56.8531H152.629V52.8347ZM152.629 58.7053H148.323V75.5949H152.629V58.7053Z" fill="#737373"/>
<path d="M155.367 67.1815C155.367 73.1149 159.549 76.003 163.793 76.003C168.038 76.003 172.22 73.1149 172.22 67.1815C172.22 61.2481 168.038 58.3286 163.793 58.3286C159.549 58.3286 155.367 61.2481 155.367 67.1815ZM159.736 67.1815C159.736 63.634 161.422 61.7191 163.793 61.7191C166.165 61.7191 167.851 63.634 167.851 67.1815C167.851 70.6976 166.165 72.6126 163.793 72.6126C161.422 72.6126 159.736 70.6976 159.736 67.1815Z" fill="#737373"/>
<path d="M179.267 60.9342V58.7053H174.96V75.5949H179.267V66.8048C179.267 64.1363 179.891 61.8132 182.731 61.8132C185.165 61.8132 185.634 63.6968 185.634 65.8944V75.5949H189.94V64.9526C189.94 60.8086 188.161 58.3286 184.135 58.3286C182.076 58.3286 180.234 59.239 179.267 60.9342Z" fill="#737373"/>
<path d="M64.3109 28.4136L76.1756 11.7772H67.793L60.1196 22.4812L52.7042 11.7772H43.6767L55.6059 28.8649L42.9674 46.4685H51.4145L59.7327 34.7973L67.9219 46.4685H76.9494L64.3109 28.4136Z" fill="#1E1E1E"/>
<path fill-rule="evenodd" clip-rule="evenodd" d="M33.6324 19.0852L20.3757 19.0314L13.6804 28.7445L20.4324 38.7936L33.5753 38.8473L40.6313 28.7998L33.6324 19.0852ZM49.7876 28.7445L37.4529 11.6238L16.4566 11.5701L4.65518 28.6908L16.4566 46.255L37.4529 46.3087L49.7876 28.7445Z" fill="#1E1E1E"/>
<path d="M88.4437 28.1238C88.4437 21.9097 90.3878 17.4252 96.0906 17.4252C101.793 17.4252 102.247 21.9737 102.247 26.6503V46.4459H109.959V28.1238C109.959 21.9097 111.903 17.4252 117.606 17.4252C123.309 17.4252 123.762 21.9737 123.762 26.6503V46.4459H131.474V24.7925C131.474 16.5924 128.363 11.2111 120.068 11.2111C115.726 11.2111 111.773 12.9408 108.728 17.2971C107.107 13.4533 103.997 11.2111 98.5532 11.2111C93.8873 11.2111 90.4526 13.197 88.4437 16.7846V11.9798H80.7319V46.4459H88.4437V28.1238Z" fill="#1E1E1E"/>
<path d="M171.019 31.391C171.732 19.8596 164.993 11.2111 154.3 11.2111C144.385 11.2111 137.191 18.5784 137.191 28.9566C137.191 38.8864 143.607 47.2787 154.818 47.2787C163.761 47.2787 169.075 41.6412 170.631 36.1317H163.048C161.688 39.3989 158.577 40.9365 154.494 40.9365C150.088 40.9365 145.551 37.7974 145.033 31.391H171.019ZM154.3 17.169C158.836 17.169 162.984 20.4362 163.178 25.8175H145.033C145.746 19.3471 150.671 17.169 154.3 17.169Z" fill="#1E1E1E"/>
<path d="M178.471 11.9798H173.287V17.4893H178.471V37.413C178.471 44.4599 179.961 46.4459 187.414 46.4459H193.117V40.6161H190.33C187.025 40.6161 186.183 39.7833 186.183 36.2598V17.4893H193.182V11.9798H186.183V2.88285H178.471V11.9798Z" fill="#1E1E1E"/>
<path d="M220.973 32.8645C220.973 38.7583 217.603 41.5771 211.9 41.5771C208.012 41.5771 205.484 39.7833 205.484 36.7723C205.484 32.8645 209.956 31.2629 220.973 30.2379V32.8645ZM210.215 47.2787C215.399 47.2787 219.417 45.549 221.686 41.7693C221.88 44.1396 222.074 44.9724 222.334 46.4459H229.397C228.684 43.5631 228.36 39.0146 228.36 34.6583C228.36 31.5191 228.49 27.4191 228.49 25.7535C228.684 14.7346 222.139 10.9548 213.779 10.9548C205.355 10.9548 199.458 15.8236 198.939 22.8065H206.521C206.716 18.6424 209.632 16.5924 213.52 16.5924C217.408 16.5924 220.778 18.3862 220.778 24.28V24.9206C208.077 26.266 197.319 28.316 197.319 36.9645C197.319 43.2427 202.633 47.2787 210.215 47.2787Z" fill="#1E1E1E"/>
<path d="M244 0H236.288V46.4459H244V0Z" fill="#1E1E1E"/>
</svg>
