<svg width="46" height="43" viewBox="0 0 46 43" fill="none" xmlns="http://www.w3.org/2000/svg">
<g opacity="0.3">
<path d="M0.394171 23.2124C-0.13139 22.2275 -0.13139 21.0404 0.394171 20.0555L5.11766 11.2033L10.3217 2.63224C10.9008 1.67857 11.9153 1.08505 13.0199 1.05376L22.9475 0.77261L32.875 1.05376C33.9796 1.08505 34.9942 1.67857 35.5732 2.63224L40.7773 11.2033L45.5008 20.0555C46.0263 21.0404 46.0263 22.2275 45.5008 23.2124L40.7773 32.0646L35.5732 40.6357C34.9942 41.5893 33.9796 42.1829 32.875 42.2142L22.9475 42.4953L13.0199 42.2142C11.9153 42.1829 10.9008 41.5893 10.3217 40.6357L5.11766 32.0646L0.394171 23.2124Z" fill="white"/>
<path fill-rule="evenodd" clip-rule="evenodd" d="M22.8332 30.0587L14.7415 21.871L22.8332 13.6834L24.4863 15.3609L19.2238 20.6857L31.3701 20.6857L31.3701 23.0564L19.2238 23.0564L24.4863 28.3812L22.8332 30.0587Z" fill="black"/>
</g>
</svg>
