<svg width="162" height="115" viewBox="0 0 162 115" fill="none" xmlns="http://www.w3.org/2000/svg">
<path d="M0.0769306 1.73331C-0.323069 2.79997 0.876931 11.6 2.7436 21.4666C14.7436 87.0666 18.7436 107.6 19.9436 109.067C24.6103 114.933 23.0103 104 7.5436 22.8C6.07693 15.3333 4.87693 8.26664 4.87693 7.19997C4.87693 5.59998 15.4103 5.33331 71.4103 5.33331H137.944L141.41 24.2666C152.477 83.6 156.877 106.933 157.677 109.2C158.077 110.533 158.744 110.533 160.077 109.467C161.544 108.267 161.41 106 159.41 95.6C158.077 88.9333 153.544 65.0666 149.41 42.6666C145.277 20.2666 141.677 1.59998 141.277 0.933304C141.01 0.399971 109.277 -2.28882e-05 70.7436 -2.28882e-05C13.4103 -2.28882e-05 0.610264 0.26664 0.0769306 1.73331Z" fill="black"/>
<path d="M102.876 18.8003C102.476 20.0003 105.41 36.5337 109.543 55.467C120.61 106 122.61 113.734 124.743 114.4C126.61 115.067 126.476 111.6 124.076 98.9337L123.276 94.667H134.61C147.41 94.667 146.076 93.6003 149.01 107.067C149.943 111.734 151.276 114.667 152.476 114.667C154.876 114.667 154.743 111.6 151.543 97.7337C150.21 91.3337 146.476 74.5337 143.543 60.667C136.21 26.5337 134.476 19.7337 133.01 18.267C130.743 16.0003 129.81 20.667 131.276 27.3337L132.61 33.3337H120.876H109.143L108.343 27.467C107.81 24.267 106.61 20.5337 105.543 19.2003C103.943 16.9337 103.676 16.9337 102.876 18.8003ZM135.01 44.267L136.61 50.667H124.876H113.276L112.343 45.6003C111.01 37.067 110.61 37.3337 122.476 37.7337L133.41 38.0003L135.01 44.267ZM138.743 60.9337C139.276 63.7337 139.943 67.067 140.343 68.4003C141.01 70.5337 140.076 70.8003 129.41 70.4003L117.543 70.0003L116.076 62.9337L114.476 56.0003H126.21H137.943L138.743 60.9337ZM142.076 77.6003C142.743 79.3337 143.676 82.667 144.21 84.9337L145.143 89.3337H133.676C127.543 89.3337 122.076 88.9337 121.81 88.267C121.41 87.7337 120.743 84.5337 120.21 80.9337L119.276 74.667H130.076C140.076 74.667 141.01 74.9337 142.076 77.6003Z" fill="black"/>
<path d="M37.943 47.4674C34.8763 49.0674 34.4763 50.0007 35.0096 53.0674C35.6763 56.534 35.543 56.6674 30.2096 56.8007C27.2763 56.934 24.4763 57.334 24.0763 57.734C22.2096 59.6007 25.543 61.334 31.2763 61.6007C37.2763 61.734 37.2763 61.8674 29.543 62.534C23.6763 63.0674 21.543 63.8674 21.543 65.334C21.543 66.934 23.543 67.4674 30.4763 67.734L39.4096 68.134L40.343 74.0007C40.743 77.2007 41.943 80.9341 42.743 82.1341C44.343 84.2674 44.6096 84.1341 47.943 82.0007C50.6096 80.2674 51.2763 78.9341 50.743 76.6674C50.343 74.934 50.6096 72.2674 51.543 70.8007C52.743 68.2674 54.2096 68.0007 63.4096 68.0007H73.8096L75.4096 75.3341C77.4096 83.8674 78.4763 84.9341 82.8763 82.1341C85.2763 80.5341 86.2096 78.6674 86.2096 75.6007C86.2096 69.0674 87.4096 68.134 97.543 67.734C104.743 67.4674 106.876 66.934 106.876 65.334C106.876 63.8674 104.876 63.2007 98.8763 62.6674L90.8763 62.134L99.4096 61.334C110.343 60.4007 111.543 58.0007 101.543 56.6674C95.2763 56.0007 93.8096 55.334 92.743 52.534C91.6763 49.4674 91.143 49.2007 85.543 50.134C82.2096 50.534 79.543 50.4007 79.543 49.8674C79.4096 43.4674 70.2096 45.734 70.2096 52.134C70.2096 55.334 69.543 56.0007 65.4096 56.8007C60.343 57.734 58.743 56.934 57.943 52.6674C57.543 50.4007 56.6096 50.0007 51.8096 50.4007C47.4096 50.8007 45.543 50.2674 43.8096 48.134C41.6763 45.6007 41.2763 45.6007 37.943 47.4674ZM54.2096 55.334C54.2096 55.734 52.4763 59.6007 50.2096 64.0007C48.0763 68.4007 46.2096 73.3341 46.0763 74.934C45.943 77.3341 45.6763 76.9341 44.743 73.6007C43.6763 69.8674 43.8096 68.8007 45.6763 67.4674C48.2096 65.4674 47.143 62.8007 43.8096 62.534C42.6096 62.4007 43.2763 62.0007 45.4096 61.4674C51.2763 60.2674 51.4096 57.334 45.6763 57.334C38.343 57.334 39.943 55.2007 47.543 54.8007C51.2763 54.6674 54.2096 54.934 54.2096 55.334ZM88.8763 55.334C88.8763 55.734 87.143 59.6007 84.8763 64.0007C82.743 68.4007 80.8763 72.934 80.743 74.2674C80.743 75.6007 80.0763 74.934 79.543 72.8007C78.6096 69.734 78.8763 68.534 80.4763 67.334C82.8763 65.4674 81.8096 62.6674 78.4763 62.534C77.0096 62.4007 77.2763 62.134 79.2763 61.6007C83.4096 60.4007 83.143 58.134 78.8763 57.6007C72.8763 56.8007 75.4096 54.6674 82.2096 54.6674C85.943 54.6674 88.8763 54.934 88.8763 55.334ZM68.4763 62.2674C65.8096 62.534 61.543 62.534 59.143 62.2674C56.8763 62.0007 59.143 61.734 64.2096 61.734C69.4096 61.734 71.2763 62.0007 68.4763 62.2674Z" fill="black"/>
</svg>
