<svg width="162" height="83" viewBox="0 0 162 83" fill="none" xmlns="http://www.w3.org/2000/svg">
<path d="M33.8667 0.931496C32.9333 1.46483 25.0667 16.3982 16.1333 34.1315C1.46667 63.5982 0 67.1982 0 73.7315C0 79.0648 0.533333 81.0648 2.13333 81.7315C5.33333 82.9315 87.2 82.5315 89.2 81.3315C90.1333 80.6648 96.8 68.2648 103.867 53.7315L116.8 27.3315L129.867 53.8648C136.933 68.5315 143.6 80.9315 144.4 81.4648C146.667 82.9315 158.933 82.6648 161.333 81.1982C163.067 80.1315 160.133 73.4648 144 41.1982C133.333 19.7315 123.733 1.86483 122.667 1.19817C120.133 -0.13517 35.8667 -0.535172 33.8667 0.931496ZM42.6667 5.86483C42.6667 6.1315 42 7.99816 41.0667 9.86483C40 12.2648 38.5333 13.1982 35.7333 13.1982C32 13.1982 32 13.1982 34 9.19817C35.4667 6.39816 37.0667 5.19817 39.3333 5.19817C41.2 5.19817 42.6667 5.46483 42.6667 5.86483ZM54.6667 6.66483C54.6667 9.99817 51.7333 13.1982 48.6667 13.1982C44.8 13.1982 44.5333 12.2648 47.4667 8.1315C49.4667 5.19817 54.6667 3.99816 54.6667 6.66483ZM68 5.86483C68 6.1315 67.3333 7.99816 66.4 9.86483C65.3333 12.2648 63.8667 13.1982 61.0667 13.1982C57.3333 13.1982 57.3333 13.1982 59.3333 9.19817C60.8 6.39816 62.4 5.19817 64.6667 5.19817C66.5333 5.19817 68 5.46483 68 5.86483ZM80 6.66483C80 9.99817 77.0667 13.1982 74 13.1982C70.1333 13.1982 70 12.7982 72.8 8.5315C74.9333 5.19817 80 3.86483 80 6.66483ZM93.3333 5.86483C93.3333 8.9315 89.7333 13.1982 87.0667 13.1982C83.6 13.1982 83.2 11.7315 85.6 7.86483C87.0667 5.59817 93.3333 3.99816 93.3333 5.86483ZM105.333 6.66483C105.333 9.99817 102.4 13.1982 99.3333 13.1982C95.4667 13.1982 95.3333 12.7982 98.1333 8.5315C100.267 5.19817 105.333 3.86483 105.333 6.66483ZM138 41.1982L156 77.1982H151.6C147.2 77.1982 147.2 77.0648 132.667 48.2648C124.533 32.3982 117.467 19.3315 116.667 19.3315C116 19.1982 108.933 32.2648 101.067 48.1315L86.8 77.1982H46.1333H5.33333V73.1982V69.1982H43.0667H80.9333L96.4 37.1982C117.333 -6.13517 114.133 -6.40184 138 41.1982ZM36 19.3315C36 21.9982 32.8 25.1982 30 25.1982C26.2667 25.1982 26.1333 24.7982 28 21.0648C29.3333 18.7982 36 17.3315 36 19.3315ZM47.7333 21.8648C46.6667 24.2648 45.2 25.1982 42.4 25.1982C38.5333 25.1982 38.4 24.3982 41.7333 20.1315C42.4 19.3315 44.4 18.5315 46.1333 18.5315C49.0667 18.5315 49.2 18.7982 47.7333 21.8648ZM61.3333 19.5982C61.3333 22.2648 57.6 25.4648 55.0667 24.9315C50.9333 24.2648 53.4667 18.5315 58 18.5315C59.8667 18.5315 61.3333 19.0648 61.3333 19.5982ZM73.0667 21.8648C72.1333 23.9982 70.5333 25.1982 68.4 25.1982C64.9333 25.1982 64.8 24.7982 66.6667 21.0648C67.4667 19.5982 69.4667 18.5315 71.3333 18.5315C74.4 18.5315 74.5333 18.7982 73.0667 21.8648ZM86.6667 19.3315C86.6667 21.9982 83.4667 25.1982 80.6667 25.1982C77.6 25.1982 77.4667 24.9315 78.9333 21.8648C79.8667 19.7315 81.4667 18.5315 83.6 18.5315C85.2 18.5315 86.6667 18.9315 86.6667 19.3315ZM98.4 21.8648C97.4667 23.9982 95.8667 25.1982 93.7333 25.1982C90.2667 25.1982 90.1333 24.7982 92 21.0648C92.8 19.5982 94.8 18.5315 96.6667 18.5315C99.7333 18.5315 99.8667 18.7982 98.4 21.8648ZM29.3333 31.9982C29.3333 35.3315 26.4 38.5315 23.3333 38.5315C20.8 38.5315 20.2667 37.9982 20.9333 36.1315C21.3333 34.9315 22.2667 33.0648 23.0667 32.1315C24.6667 30.1315 29.3333 29.9982 29.3333 31.9982ZM42.6667 31.1982C42.6667 34.2648 39.0667 38.5315 36.4 38.5315C32.8 38.5315 32.8 38.3982 34.9333 33.8648C35.8667 31.7315 37.4667 30.5315 39.6 30.5315C41.2 30.5315 42.6667 30.7982 42.6667 31.1982ZM54.6667 31.9982C54.6667 35.3315 51.7333 38.5315 48.5333 38.5315C45.3333 38.5315 45.3333 38.3982 47.3333 34.5315C49.3333 30.6648 54.6667 28.7982 54.6667 31.9982ZM68 31.1982C68 34.2648 64.4 38.5315 61.7333 38.5315C58.1333 38.5315 58.1333 38.3982 60.2667 33.8648C61.2 31.7315 62.8 30.5315 64.9333 30.5315C66.5333 30.5315 68 30.7982 68 31.1982ZM80 32.9315C80 36.2648 77.4667 38.5315 73.7333 38.5315C70.6667 38.5315 70.6667 38.3982 72.6667 34.5315C74.9333 29.9982 80 28.9315 80 32.9315ZM93.3333 31.1982C93.3333 34.2648 89.7333 38.5315 87.0667 38.5315C83.4667 38.5315 83.4667 38.3982 85.6 33.8648C86.5333 31.7315 88.1333 30.5315 90.2667 30.5315C91.8667 30.5315 93.3333 30.7982 93.3333 31.1982ZM22 47.8648C20 51.7315 14.6667 53.5982 14.6667 50.3982C14.6667 47.0648 17.6 43.8648 20.8 43.8648C24 43.8648 24 43.9982 22 47.8648ZM36 44.5315C36 47.5982 32.4 51.8648 29.7333 51.8648C26.1333 51.8648 26.1333 51.7315 28.2667 47.1982C29.2 45.0648 30.8 43.8648 32.9333 43.8648C34.5333 43.8648 36 44.1315 36 44.5315ZM49.3333 44.5315C49.3333 46.7982 44.6667 51.8648 42.5333 51.8648C39.7333 51.8648 39.3333 50.2648 41.3333 46.3982C42.5333 44.1315 49.3333 42.6648 49.3333 44.5315ZM60.2667 47.8648C58.8 50.3982 56.9333 51.8648 55.0667 51.8648C51.4667 51.8648 51.4667 51.7315 53.6 47.1982C54.6667 44.7982 56.1333 43.8648 58.8 43.8648H62.5333L60.2667 47.8648ZM74.6667 44.9315C74.6667 47.3315 70.2667 51.8648 67.8667 51.8648C65.0667 51.8648 64.6667 50.2648 66.6667 46.3982C68 43.9982 74.6667 42.6648 74.6667 44.9315ZM86.6667 44.5315C86.6667 47.5982 83.0667 51.8648 80.4 51.8648C76.8 51.8648 76.8 51.7315 78.9333 47.1982C79.8667 45.0648 81.4667 43.8648 83.6 43.8648C85.2 43.8648 86.6667 44.1315 86.6667 44.5315ZM17.3333 56.5315C17.3333 59.5982 13.7333 63.8648 11.0667 63.8648C7.46667 63.8648 7.46667 63.7315 9.6 59.1982C10.5333 57.0648 12.1333 55.8648 14.2667 55.8648C15.8667 55.8648 17.3333 56.1315 17.3333 56.5315ZM28.9333 59.8648C27.7333 63.0648 26.6667 63.8648 23.7333 63.8648C20 63.8648 20 63.8648 22 59.8648C23.4667 57.0648 25.0667 55.8648 27.2 55.8648C30.2667 55.8648 30.4 56.1315 28.9333 59.8648ZM42.6667 57.3315C42.6667 60.6648 39.7333 63.8648 36.6667 63.8648C32.8 63.8648 32.8 63.7315 34.9333 59.1982C36.4 55.8648 42.6667 54.2648 42.6667 57.3315ZM56 56.5315C56 56.7982 55.3333 58.6648 54.4 60.5315C53.3333 62.9315 51.8667 63.8648 49.0667 63.8648C45.3333 63.8648 45.3333 63.8648 47.3333 59.8648C48.8 57.0648 50.4 55.8648 52.6667 55.8648C54.5333 55.8648 56 56.1315 56 56.5315ZM68 57.3315C68 60.6648 65.0667 63.8648 62 63.8648C58.1333 63.8648 58.1333 63.7315 60.2667 59.1982C61.7333 55.8648 68 54.2648 68 57.3315ZM81.3333 56.5315C81.3333 56.7982 80.6667 58.6648 79.7333 60.5315C78.6667 62.9315 77.2 63.8648 74.4 63.8648C70.6667 63.8648 70.6667 63.8648 72.6667 59.8648C74.1333 57.0648 75.7333 55.8648 78 55.8648C79.8667 55.8648 81.3333 56.1315 81.3333 56.5315Z" fill="black"/>
</svg>
