<svg width="159" height="98" viewBox="0 0 159 98" fill="none" xmlns="http://www.w3.org/2000/svg">
<path d="M0 12.6663C0 23.8663 0.266667 25.3329 2.66667 26.6663C4.8 27.8663 5.33333 29.4663 5.33333 35.8663C5.33333 43.3329 5.46667 43.7329 9.86667 45.9996C14 48.2663 14.4 49.1996 15.2 56.1329C15.7333 60.9329 16.8 63.9996 18 64.5329C19.4667 65.0663 20 67.5996 20 73.8663V82.3996L32.8 89.9996L45.7333 97.4663L49.8667 93.4663C52.2667 91.1996 54.6667 89.3329 55.2 89.3329C55.8667 89.3329 59.3333 91.1996 63.0667 93.4663L69.7333 97.4663L74.2667 93.0663L78.8 88.6663L86.9333 93.0663L94.9333 97.5996L99.3333 93.3329L103.867 88.9329L111.467 93.1996L118.933 97.5996L123.467 93.1996L128 88.7996L135.733 92.9329L143.333 97.0663L151.067 90.2663C155.2 86.3996 158.667 82.7996 158.667 82.1329C158.667 81.4663 156.8 77.9996 154.533 74.3996C150.533 68.1329 150.4 67.8663 152.667 65.3329C154.933 62.7996 154.8 62.3996 149.467 54.2663C146.533 49.5996 144 44.7996 144 43.4663C144 42.1329 142.133 38.5329 140 35.3329C135.867 29.3329 135.067 26.6663 137.333 26.6663C140 26.6663 138.533 23.3329 131.067 11.7329L123.333 -0.00038147H61.7333H0V12.6663ZM31.0667 12.9329L38.4 23.3329L32.2667 29.5996C28.9333 33.1996 25.7333 35.9996 25.2 35.9996C24.8 35.9996 19.4667 33.1996 13.4667 29.8663L2.66667 23.7329V13.1996V2.66628H13.2H23.7333L31.0667 12.9329ZM55.7333 13.7329L62.9333 24.1329L56.5333 29.9996C52.9333 33.3329 49.6 35.8663 48.9333 35.9996C48.4 35.9996 45.4667 34.3996 42.5333 32.5329C37.3333 29.3329 37.2 29.0663 39.4667 26.5329C41.6 24.1329 41.4667 23.7329 37.0667 17.0663C34.5333 13.1996 31.3333 8.26628 30 6.26628L27.6 2.53295L38.1333 2.93295L48.6667 3.33295L55.7333 13.7329ZM80 13.4663L87.0667 24.1329L81.3333 30.1329C78 33.3329 74.9333 35.9996 74.1333 35.9996C73.4667 35.9996 70.2667 34.3996 66.9333 32.5329C62 29.5996 61.3333 28.7996 63.2 27.7329C66.2667 25.9996 65.8667 24.1329 60.9333 16.6663C58.4 12.9329 55.3333 8.39961 54 6.26628L51.7333 2.66628H62.4H72.9333L80 13.4663ZM104 12.6663C107.6 18.1329 110.667 23.0663 110.667 23.5996C110.667 24.2663 108 27.4663 104.667 30.6663L98.6667 36.5329L93.0667 33.3329C89.8667 31.5996 87.0667 29.9996 86.8 29.7329C86.5333 29.5996 87.2 28.2663 88.4 26.9329C90.4 24.6663 90.1333 23.8663 83.3333 13.5996L76 2.66628H86.6667H97.2L104 12.6663ZM129.2 13.5996L136.267 24.3996L131.867 28.5329C123.2 36.3996 123.333 36.3996 118.4 33.8663C110.933 30.1329 110.267 29.3329 112.8 26.5329C114.933 24.1329 114.667 23.4663 108.133 14.1329C104.4 8.66628 101.333 3.86628 101.333 3.46628C101.333 3.06628 106 2.66628 111.733 2.66628H122L129.2 13.5996ZM17.8667 35.4663L25.7333 40.1329L29.8667 36.1329C32.2667 33.8663 34.8 31.9996 35.6 31.9996C36.4 31.9996 38.6667 34.5329 40.6667 37.4663L44.2667 42.9329L40.4 46.5329C29.8667 55.8663 32.2667 55.5996 19.4667 48.5329L8 42.1329V36.3996C8 33.1996 8.4 30.6663 9.06667 30.6663C9.6 30.6663 13.6 32.7996 17.8667 35.4663ZM137.867 36.7996L141.733 42.7996L135.867 48.7996C132.667 51.9996 129.6 54.6663 128.8 54.6663C128.133 54.6663 124.933 53.0663 121.733 51.1996C116.133 47.9996 115.867 47.5996 118 45.3329C119.733 43.3329 119.867 42.2663 118.667 40.1329C117.067 37.0663 117.6 36.6663 121.2 38.6663C123.067 39.5996 124.533 38.9329 128 35.3329C130.533 32.7996 132.8 30.6663 133.2 30.6663C133.733 30.6663 135.733 33.4663 137.867 36.7996ZM64.8 37.3329L68.4 42.7996L63.8667 47.4663C56.6667 55.0663 55.3333 55.3329 48.4 51.1996C43.3333 48.2663 42.6667 47.4663 44.5333 46.3996C47.0667 44.9329 47.3333 41.1996 45.0667 38.9329C43.2 37.0663 44.5333 36.7996 47.8667 38.6663C49.7333 39.5996 51.0667 39.0663 54 35.9996C56.1333 33.7329 58.6667 31.9996 59.6 31.9996C60.5333 31.9996 62.9333 34.3996 64.8 37.3329ZM88.5333 36.3996C90.5333 38.9329 92 41.4663 92 42.1329C92 42.9329 89.3333 46.1329 86 49.3329L80 55.1996L74 51.9996C70.6667 50.1329 68 48.5329 68 48.3996C68 48.1329 68.8 46.7996 69.6 45.3329C70.9333 43.1996 70.9333 42.1329 69.4667 39.8663C67.6 36.7996 67.4667 36.7996 73.7333 39.3329C74.6667 39.7329 77.2 38.2663 79.3333 35.9996C81.4667 33.8663 83.6 31.9996 84.1333 31.9996C84.8 31.9996 86.6667 33.9996 88.5333 36.3996ZM113.733 37.1996L117.067 42.2663L110.667 48.6663L104.267 54.9329L99.8667 52.6663C92.2667 48.7996 91.6 47.9996 94.1333 45.1996C96 43.0663 96 42.5329 93.8667 39.1996L91.3333 35.5996L95.0667 37.9996L98.8 40.3996L103.067 36.2663C105.333 33.8663 108 31.9996 108.8 31.9996C109.6 31.9996 111.867 34.2663 113.733 37.1996ZM147.067 55.1996L151.733 62.2663L145.333 68.6663L138.8 75.0663L132.8 71.4663C126.133 67.5996 125.6 66.5329 128.667 63.9996C130.133 62.7996 130.4 61.8663 129.333 60.7996C128.4 59.8663 130 57.7329 134.4 53.7329C137.867 50.6663 141.067 48.1329 141.467 47.9996C141.867 47.9996 144.4 51.1996 147.067 55.1996ZM46 53.0663C48.2667 54.3996 50.9333 57.1996 52 59.1996C53.8667 62.7996 53.8667 63.0663 47.3333 68.6663L40.8 74.5329L33.3333 70.2663C29.3333 67.9996 24.4 65.1996 22.4 64.1329C18.9333 62.1329 16 54.2663 18 52.2663C18.4 51.7329 21.7333 53.0663 25.2 54.9329L31.6 58.5329L35.3333 54.6663C39.8667 49.9996 40.6667 49.8663 46 53.0663ZM72.6667 55.3329C75.2 57.9996 77.3333 60.9329 77.3333 61.8663C77.3333 62.7996 74.6667 66.1329 71.3333 69.1996C64.8 75.1996 64.8 75.1996 56.2667 69.5996C53.6 67.8663 53.4667 67.4663 55.2 65.4663C56.4 64.2663 56.9333 61.9996 56.5333 60.5329C56 58.5329 56.9333 56.7996 60 54.2663C65.4667 49.5996 66.9333 49.7329 72.6667 55.3329ZM97.7333 56.1329L102.933 61.7329L96.2667 68.3996L89.6 74.9329L83.4667 71.3329C77.6 67.8663 77.3333 67.5996 79.4667 65.1996C80.6667 63.8663 81.2 62.1329 80.6667 61.3329C79.4667 59.4663 87.6 50.6663 90.5333 50.6663C91.6 50.6663 94.8 53.1996 97.7333 56.1329ZM118.267 52.3996C119.867 53.3329 122.4 55.7329 124.133 57.7329L127.067 61.5996L120.4 68.2663L113.733 74.9329L107.467 71.0663C101.867 67.5996 101.467 66.9329 103.333 65.3329C104.533 64.3996 105.2 62.5329 105.067 61.1996C104.667 58.7996 111.467 50.6663 113.867 50.6663C114.667 50.7996 116.667 51.4663 118.267 52.3996ZM31.8667 72.6663C36.1333 75.1996 40.2667 77.3329 40.9333 77.3329C41.6 77.3329 43.6 75.8663 45.3333 73.9996C47.0667 72.1329 49.0667 70.6663 49.8667 70.6663C50.6667 70.6663 52.9333 73.1996 55.0667 76.3996L58.6667 81.9996L52.4 87.5996C48.9333 90.7996 45.6 93.3329 45.0667 93.3329C44.4 93.3329 39.0667 90.5329 33.3333 87.1996L22.6667 81.0663V74.5329C22.6667 70.9329 22.9333 67.9996 23.2 67.9996C23.6 67.9996 27.4667 70.1329 31.8667 72.6663ZM78.9333 76.3996L82.5333 81.9996L77.0667 87.5996C74 90.7996 70.5333 93.3329 69.3333 93.3329C68.2667 93.3329 65.0667 91.8663 62.2667 90.1329C57.4667 87.1996 57.3333 86.9329 59.4667 84.7996C61.3333 82.7996 61.4667 81.9996 59.8667 78.9329C58.9333 76.9329 57.8667 74.9329 57.6 74.2663C57.3333 73.7329 58.9333 74.3996 61.0667 75.5996C64.8 77.7329 65.0667 77.7329 69.4667 74.2663C72 72.2663 74.2667 70.6663 74.6667 70.6663C75.0667 70.6663 76.9333 73.1996 78.9333 76.3996ZM103.333 75.9996L107.067 81.4663L100.667 87.9996L94.1333 94.5329L89.4667 91.7329C82.5333 87.5996 82.2667 87.1996 84.1333 84.2663C85.4667 81.9996 85.4667 81.0663 83.6 78.1329C80.5333 73.4663 80.8 72.6663 84.6667 75.1996C89.0667 78.1329 91.0667 77.8663 94.6667 73.9996C96.4 72.1329 98.2667 70.6663 98.6667 70.6663C99.2 70.6663 101.333 73.0663 103.333 75.9996ZM127.2 75.0663C129.2 77.5996 130.667 80.1329 130.667 80.7996C130.667 81.5996 128 84.7996 124.667 87.9996L118.533 93.9996L112.667 90.7996C106.133 87.3329 105.6 86.5329 108.667 83.9996C110.4 82.5329 110.4 81.7329 107.867 77.7329L105.067 73.1996L109.867 75.5996C114.667 77.8663 114.8 77.8663 118.4 74.2663C120.267 72.2663 122.4 70.6663 122.933 70.6663C123.467 70.6663 125.333 72.6663 127.2 75.0663ZM152.667 76.1329L156.267 81.5996L150.533 87.4663C147.333 90.6663 144 93.3329 143.067 93.3329C141.867 93.3329 133.333 89.0663 130.8 87.0663C130.533 86.9329 131.333 85.4663 132.533 84.1329C134.8 81.5996 134.8 81.3329 132 77.4663C128.933 73.0663 129.733 72.1329 133.867 75.3329C137.467 78.1329 139.333 77.8663 143.467 73.9996C145.467 72.1329 147.467 70.6663 148 70.6663C148.533 70.6663 150.667 73.1996 152.667 76.1329Z" fill="black"/>
</svg>
