<svg width="73" height="74" viewBox="0 0 73 74" fill="none" xmlns="http://www.w3.org/2000/svg">
<path d="M71.1999 33.3118C72.3231 35.3893 72.3231 37.893 71.1999 39.9704L64.3167 52.7011L56.7332 65.0275C55.4957 67.0389 53.3274 68.2908 50.9667 68.3568L36.5 68.7611L22.0333 68.3568C19.6726 68.2908 17.5043 67.0389 16.2668 65.0275L8.68326 52.7011L1.80005 39.9704C0.676848 37.893 0.676848 35.3893 1.80006 33.3118L8.68326 20.5811L16.2668 8.25471C17.5043 6.24328 19.6726 4.99142 22.0333 4.92544L36.5 4.52111L50.9667 4.92545C53.3274 4.99143 55.4957 6.24328 56.7332 8.25471L64.3167 20.5811L71.1999 33.3118Z" fill="white"/>
<path fill-rule="evenodd" clip-rule="evenodd" d="M36.3901 24.4716C34.8222 24.4716 33.5511 25.6835 33.5511 27.1786C33.5511 28.327 34.3011 29.3084 35.3596 29.7017C35.8533 28.004 37.2558 26.6667 39.0363 26.196C38.6238 25.1867 37.5945 24.4716 36.3901 24.4716ZM41.5573 26.1239C41.0488 23.8481 38.9285 22.1411 36.3901 22.1411C33.4723 22.1411 31.1069 24.3965 31.1069 27.1786C31.1069 29.5989 32.8972 31.6206 35.284 32.1054C35.7924 34.3812 37.9127 36.0882 40.4512 36.0882C43.369 36.0882 45.7344 33.8328 45.7344 31.0507C45.7344 28.6304 43.9441 26.6087 41.5573 26.1239ZM40.4512 28.3438C38.8832 28.3438 37.6122 29.5557 37.6122 31.0507C37.6122 32.5458 38.8832 33.7577 40.4512 33.7577C42.0191 33.7577 43.2902 32.5458 43.2902 31.0507C43.2902 29.5557 42.0191 28.3438 40.4512 28.3438ZM24 38.7951C24 37.617 25.0017 36.6618 26.2374 36.6618H30.2985C31.3048 36.6618 32.1559 37.2953 32.4372 38.1668L32.8201 37.9843C33.9766 37.4329 35.2519 37.1459 36.5449 37.1459H36.9613C37.7016 37.1459 38.4385 37.24 39.1528 37.4257L41.2868 37.9806C42.4637 38.2867 43.1858 39.2283 43.2963 40.2428L44.5202 39.0757C45.6057 38.0407 47.3065 37.8801 48.5838 38.6921C50.0609 39.631 50.5086 41.6028 49.3198 43.0023C48.7507 43.6723 48.0198 44.4746 47.2147 45.2121C46.4214 45.9389 45.4981 46.6572 44.5406 47.1027C43.5539 47.5618 42.8076 47.8002 42.0116 47.9376C41.4645 48.032 40.8825 48.0775 40.2351 48.1281C40.0137 48.1454 39.7847 48.1633 39.5468 48.184C38.1741 48.3032 36.5866 48.0641 35.2866 47.8682C35.2094 47.8565 35.1333 47.8451 35.0583 47.8338C34.3527 47.7282 33.7368 47.6401 33.2097 47.6043C32.9216 47.5847 32.7001 47.5843 32.534 47.5948C32.486 48.7325 31.5035 49.6409 30.2985 49.6409H26.2374C25.0017 49.6409 24 48.6858 24 47.5076V38.7951ZM32.5358 45.2613C32.8251 45.2508 33.1126 45.2612 33.3836 45.2797C34.0304 45.3237 34.7471 45.4282 35.4375 45.5316L35.5325 45.5458C36.9491 45.7581 38.2647 45.9552 39.325 45.8631C39.6367 45.836 39.9066 45.8149 40.1472 45.796C40.7401 45.7496 41.1547 45.7171 41.5763 45.6444C42.1071 45.5528 42.6385 45.3946 43.4687 45.0083C44.0928 44.7179 44.8022 44.1904 45.5213 43.5317C46.2285 42.8837 46.8895 42.1606 47.4205 41.5356C47.6327 41.2858 47.6031 40.8696 47.2281 40.6312C46.9202 40.4355 46.5102 40.4742 46.2485 40.7236L44.238 42.6407C43.4376 43.4038 42.352 43.8326 41.2201 43.8326H40.4524H40.45H37.913C37.2381 43.8326 36.6909 43.3109 36.6909 42.6673C36.6909 42.0238 37.2381 41.5021 37.913 41.5021H39.945L40.7772 40.7085C40.9406 40.5528 40.8665 40.287 40.6437 40.229L38.5097 39.6741C38.005 39.5428 37.4843 39.4764 36.9613 39.4764H36.5449C35.6313 39.4764 34.7303 39.6792 33.9131 40.0687L32.5358 40.7254V45.2613ZM26.4442 38.9923V47.3104H30.0916V38.9923H26.4442Z" fill="#353535"/>
</svg>
