<svg width="73" height="74" viewBox="0 0 73 74" fill="none" xmlns="http://www.w3.org/2000/svg">
<path d="M71.1999 33.3118C72.3231 35.3893 72.3231 37.893 71.1999 39.9704L64.3167 52.7011L56.7332 65.0275C55.4957 67.0389 53.3274 68.2908 50.9667 68.3568L36.5 68.7611L22.0333 68.3568C19.6726 68.2908 17.5043 67.0389 16.2668 65.0275L8.68326 52.7011L1.80005 39.9704C0.676848 37.893 0.676848 35.3893 1.80006 33.3118L8.68326 20.5811L16.2668 8.25471C17.5043 6.24328 19.6726 4.99142 22.0333 4.92544L36.5 4.52111L50.9667 4.92545C53.3274 4.99143 55.4957 6.24328 56.7332 8.25471L64.3167 20.5811L71.1999 33.3118Z" fill="white"/>
<path fill-rule="evenodd" clip-rule="evenodd" d="M30.1321 30.9014C25.9995 32.1248 23 35.7826 23 40.1047C23 45.4285 27.5509 49.7443 33.1647 49.7443C37.7283 49.7443 41.5894 46.8924 42.8744 42.9653C42.9462 42.9548 43.0181 42.9383 43.0893 42.9155C47.1056 41.6292 50 38.0271 50 33.7807C50 28.4569 45.4491 24.1411 39.8353 24.1411C35.2777 24.1411 31.4234 26.9846 30.1321 30.9014ZM33.0648 30.4655C33.0981 30.4652 33.1314 30.4651 33.1647 30.4651C38.7786 30.4651 43.3295 34.7809 43.3295 40.1047C43.3295 40.1373 43.3293 40.1699 43.329 40.2025C45.7796 39.0009 47.453 36.5749 47.453 33.7807C47.453 29.7909 44.0424 26.5565 39.8353 26.5565C36.8893 26.5565 34.3319 28.1431 33.0648 30.4655ZM33.1647 32.8805C28.9576 32.8805 25.547 36.1149 25.547 40.1047C25.547 44.0945 28.9576 47.3289 33.1647 47.3289C37.3719 47.3289 40.7825 44.0945 40.7825 40.1047C40.7825 36.1149 37.3719 32.8805 33.1647 32.8805ZM33.7576 35.3449C34.1762 35.5537 34.4382 35.9653 34.4382 36.4138V41.9253H34.9708C35.6741 41.9253 36.2443 42.466 36.2443 43.133C36.2443 43.8 35.6741 44.3407 34.9708 44.3407H31.2241C30.5208 44.3407 29.9506 43.8 29.9506 43.133C29.9506 42.466 30.5208 41.9253 31.2241 41.9253H31.8913V38.7097L31.6634 38.8582C31.0838 39.2361 30.291 39.0969 29.8925 38.5472C29.4941 37.9976 29.6409 37.2457 30.2205 36.8678L32.4423 35.4192C32.832 35.1652 33.3391 35.1362 33.7576 35.3449Z" fill="#353535"/>
</svg>
