<svg width="73" height="74" viewBox="0 0 73 74" fill="none" xmlns="http://www.w3.org/2000/svg">
<path d="M71.1999 33.3118C72.3231 35.3893 72.3231 37.893 71.1999 39.9704L64.3167 52.7011L56.7332 65.0275C55.4957 67.0389 53.3274 68.2908 50.9667 68.3568L36.5 68.7611L22.0333 68.3568C19.6726 68.2908 17.5043 67.0389 16.2668 65.0275L8.68326 52.7011L1.80005 39.9704C0.676848 37.893 0.676848 35.3893 1.80006 33.3118L8.68326 20.5811L16.2668 8.25471C17.5043 6.24328 19.6726 4.99142 22.0333 4.92544L36.5 4.52111L50.9667 4.92545C53.3274 4.99143 55.4957 6.24328 56.7332 8.25471L64.3167 20.5811L71.1999 33.3118Z" fill="white"/>
<path fill-rule="evenodd" clip-rule="evenodd" d="M23 28.6829C23 27.2012 24.1826 26 25.6415 26H40.9349C41.6644 26 42.2557 26.6006 42.2557 27.3415V30.3902H45.3071C45.6548 30.3902 45.9884 30.5295 46.2357 30.7777L50.6078 35.168C50.8588 35.42 51 35.7635 51 36.122V43.1463C51 43.7939 50.5482 44.3343 49.9473 44.4601C49.3773 46.5099 47.5062 48 45.3071 48C43.1179 48 41.2538 46.5233 40.6746 44.4878H34.1998C33.6206 46.5233 31.7566 48 29.5673 48C27.3781 48 25.514 46.5233 24.9349 44.4878H24.3208C23.5913 44.4878 23 43.8872 23 43.1463V28.6829ZM25.6415 40.3308C26.5176 39.0945 27.9542 38.2927 29.5673 38.2927C31.7566 38.2927 33.6206 39.7694 34.1998 41.8049H39.6142V28.6829L25.6415 28.6829V40.3308ZM42.2557 39.39V33.0732H44.7644L48.3585 36.6821V39.39C47.5256 38.7033 46.4616 38.2927 45.3071 38.2927C44.1526 38.2927 43.0886 38.7033 42.2557 39.39ZM29.5673 40.9756C28.3508 40.9756 27.3904 41.9619 27.3904 43.1463C27.3904 44.3308 28.3508 45.3171 29.5673 45.3171C30.7839 45.3171 31.7443 44.3308 31.7443 43.1463C31.7443 41.9619 30.7839 40.9756 29.5673 40.9756ZM45.3071 40.9756C44.0905 40.9756 43.1301 41.9619 43.1301 43.1463C43.1301 44.3308 44.0905 45.3171 45.3071 45.3171C46.5237 45.3171 47.4841 44.3308 47.4841 43.1463C47.4841 41.9619 46.5237 40.9756 45.3071 40.9756Z" fill="#353535"/>
</svg>
