<svg width="20" height="20" viewBox="0 0 20 20" fill="none" xmlns="http://www.w3.org/2000/svg">
<path d="M16.7337 9.73471L19.7999 3.33887H17.6336L15.6505 7.45402L13.7341 3.33887H11.4011L14.484 9.90824L11.2178 16.6759H13.4008L15.5505 12.1889L17.6669 16.6759H19.9999L16.7337 9.73471Z" fill="#DBFF00"/>
<mask id="path-2-inside-1_310_609" fill="white">
<path d="M8.94069 3.35518L12.1067 9.89241L8.94068 16.5989L4.22398 16.599L1.19486 9.89243L4.22398 3.35521L8.94069 3.35518Z"/>
</mask>
<path d="M8.94069 3.35518L20.8703 -5.53041L15.5191 -16.5796L6.5217 -16.5796L8.94069 3.35518ZM12.1067 9.89241L24.9029 22.4779L29.6079 12.5113L24.0363 1.00682L12.1067 9.89241ZM8.94068 16.5989L11.3597 36.5337L18.2675 36.5337L21.7369 29.1845L8.94068 16.5989ZM4.22398 16.599L-8.01315 24.8272L-2.72567 36.5338L6.64298 36.5338L4.22398 16.599ZM1.19486 9.89243L-11.6538 -2.581L-16.079 6.9692L-11.0423 18.1206L1.19486 9.89243ZM4.22398 3.35521L1.805 -16.5796L-5.16733 -16.5795L-8.62463 -9.11823L4.22398 3.35521ZM-2.98889 12.2408L0.177108 18.778L24.0363 1.00682L20.8703 -5.53041L-2.98889 12.2408ZM-0.689503 -2.69312L-3.8555 4.01342L21.7369 29.1845L24.9029 22.4779L-0.689503 -2.69312ZM6.52168 -3.33582L1.80498 -3.33579L6.64298 36.5338L11.3597 36.5337L6.52168 -3.33582ZM16.4611 8.37077L13.432 1.66422L-11.0423 18.1206L-8.01315 24.8272L16.4611 8.37077ZM14.0435 22.3659L17.0726 15.8286L-8.62463 -9.11823L-11.6538 -2.581L14.0435 22.3659ZM6.64296 23.29L11.3597 23.2899L6.5217 -16.5796L1.805 -16.5796L6.64296 23.29Z" fill="#DBFF00" mask="url(#path-2-inside-1_310_609)"/>
</svg>
